<svg xmlns="http://www.w3.org/2000/svg" width="64" height="64" fill="none"><desc>Euro Streamline Icon: https://streamlinehq.com</desc><path fill="#FEFAE0" d="M32 64c17.673 0 32-14.327 32-32S49.673 0 32 0 0 14.327 0 32s14.327 32 32 32"/><path fill="#B1AB86" fill-rule="evenodd" d="M33.86 12.514c-3.518 2.583-6.331 5.958-8.07 9.772h13.067a2.857 2.857 0 0 1 0 5.714h-14.78a20.4 20.4 0 0 0-.213 3.951q.005.123 0 .247c-.055 1.278.015 2.55.202 3.802h14.791a2.857 2.857 0 0 1 0 5.714H25.753c1.752 3.908 4.616 7.4 8.195 10.033 6.293 4.63 14.472 6.372 22.111 3.24a2.856 2.856 0 1 1 2.167 5.287c-9.801 4.019-20.064 1.668-27.665-3.924-4.958-3.648-8.923-8.778-10.952-14.636H6.857a2.857 2.857 0 1 1 0-5.714H18.3a26 26 0 0 1-.15-3.926c-.053-1.38.003-2.74.16-4.074H6.857a2.857 2.857 0 1 1 0-5.714h12.778c2.023-5.776 5.938-10.777 10.844-14.379C38.037 2.36 48.21-.07 58.036 3.164a2.857 2.857 0 0 1-1.787 5.428c-7.833-2.579-16.106-.69-22.389 3.922" clip-rule="evenodd"/></svg>