<svg xmlns="http://www.w3.org/2000/svg" fill="none" viewBox="-2.285 -2.285 64 64" id="News-Paper--Streamline-Core.svg" height="64" width="64"><desc>News Paper Streamline Icon: https://streamlinehq.com</desc><g id="news-paper--newspaper-periodical-fold-content-entertainment"><path id="Vector" fill="#fffff" d="M33.96 18.04125H14.8575v10.6125H33.96v-10.6125Z" stroke-width="4.57"></path><path id="Subtract" fill="#FEFAE0
" fill-rule="evenodd" d="M52.00125 52.00125c-1.4072175 0 -2.7571274999999997 -0.5590665 -3.7521555 -1.5540945C47.2540665 49.4521275 46.695 48.1022175 46.695 46.695V9.55125c0 -0.56292945 -0.22371149999999998 -1.1028085500000002 -0.621468 -1.50081975 -0.398181 -0.39805365000000004 -0.938145 -0.62168025 -1.5010320000000001 -0.62168025H4.245c-0.56292096 0 -1.102787325 0.2236266 -1.500832485 0.62168025C2.34611811 8.44844145 2.1225 8.98832055 2.1225 9.55125v38.205c0 1.125774 0.44724046500000003 2.205702 1.2433307850000002 3.0016395 0.7960945650000001 0.7959375 1.8758103149999998 1.2433605 3.001669215 1.2433605h45.63375Zm-37.143750000000004 -33.96H33.96v10.6125H14.8575v-10.6125Z" clip-rule="evenodd" stroke-width="4.57"></path><path id="Vector_2" stroke="#B1AB86" stroke-linecap="round" stroke-linejoin="round" d="M57.307500000000005 19.1025V46.695c0 1.4072175 -0.5590665 2.7571274999999997 -1.5540945 3.7521555 -0.995028 0.995028 -2.344938 1.5540945 -3.7521555 1.5540945s-2.7571274999999997 -0.5590665 -3.7521555 -1.5540945C47.2540665 49.4521275 46.695 48.1022175 46.695 46.695V9.55125c0 -0.56292945 -0.22371149999999998 -1.1028085500000002 -0.621468 -1.50081975 -0.398181 -0.39805365000000004 -0.938145 -0.62168025 -1.5010320000000001 -0.62168025H4.245c-0.56292096 0 -1.102787325 0.2236266 -1.500832485 0.62168025C2.34611811 8.44844145 2.1225 8.98832055 2.1225 9.55125v38.205c0 1.125774 0.44724046500000003 2.205702 1.2433307850000002 3.0016395 0.7960945650000001 0.7959375 1.8758103149999998 1.2433605 3.001669215 1.2433605h45.63375" stroke-width="4.57"></path><path id="Vector_3" stroke="#B1AB86" stroke-linecap="round" stroke-linejoin="round" d="M33.96 18.04125H14.8575v10.6125H33.96v-10.6125Z" stroke-width="4.57"></path><path id="Vector_4" stroke="#B1AB86" stroke-linecap="round" stroke-linejoin="round" d="M14.8575 41.38875H33.96" stroke-width="4.57"></path></g></svg>